<?xml version="1.0" encoding="UTF-8" standalone="no"?>
<!-- Created with Inkscape (http://www.inkscape.org/) -->

<svg
   width="17.485201mm"
   height="2.40025mm"
   viewBox="0 0 17.485201 2.40025"
   version="1.1"
   id="svg1"
   inkscape:version="1.4.3 (0d15f750, 2025-12-25)"
   sodipodi:docname="plain.svg"
   xmlns:inkscape="http://www.inkscape.org/namespaces/inkscape"
   xmlns:sodipodi="http://sodipodi.sourceforge.net/DTD/sodipodi-0.dtd"
   xmlns:xlink="http://www.w3.org/1999/xlink"
   xmlns="http://www.w3.org/2000/svg"
   xmlns:svg="http://www.w3.org/2000/svg">
  <sodipodi:namedview
     id="namedview1"
     pagecolor="#ffffff"
     bordercolor="#000000"
     borderopacity="0.25"
     inkscape:showpageshadow="2"
     inkscape:pageopacity="0.0"
     inkscape:pagecheckerboard="0"
     inkscape:deskcolor="#d1d1d1"
     inkscape:document-units="mm"
     inkscape:zoom="4.3903139"
     inkscape:cx="35.41888"
     inkscape:cy="10.819272"
     inkscape:window-width="1102"
     inkscape:window-height="750"
     inkscape:window-x="578"
     inkscape:window-y="213"
     inkscape:window-maximized="0"
     inkscape:current-layer="layer1"
     inkscape:antialias-rendering="false" />
  <defs
     id="defs1">
    <linearGradient
       id="linearGradient5"
       inkscape:collect="always">
      <stop
         style="stop-color:#57bdf8;stop-opacity:1;"
         offset="0.61656439"
         id="stop5" />
      <stop
         style="stop-color:#1c54b2;stop-opacity:1;"
         offset="1"
         id="stop6" />
    </linearGradient>
    <rect
       x="266.98032"
       y="439.36133"
       width="184.99425"
       height="174.48322"
       id="rect1" />
    <linearGradient
       inkscape:collect="always"
       xlink:href="#linearGradient5"
       id="linearGradient6"
       x1="111.53846"
       y1="133.19418"
       x2="120.92706"
       y2="133.20413"
       gradientUnits="userSpaceOnUse"
       gradientTransform="translate(-15.1142)" />
  </defs>
  <g
     inkscape:label="Layer 1"
     inkscape:groupmode="layer"
     id="layer1"
     transform="translate(-96.2574,-131.99408)">
    <text
       xml:space="preserve"
       transform="scale(0.26458333)"
       id="text1"
       style="writing-mode:lr-tb;direction:ltr;white-space:pre;shape-inside:url(#rect1);display:inline;fill:#000000" />
    <text
       xml:space="preserve"
       style="font-size:3.175px;writing-mode:lr-tb;direction:ltr;fill:#000000;stroke-width:0.264583"
       x="99.561409"
       y="139.05225"
       id="text2"><tspan
         sodipodi:role="line"
         style="font-style:normal;font-variant:normal;font-weight:normal;font-stretch:normal;font-size:3.175px;font-family:Montserrat;-inkscape-font-specification:'Montserrat, @wght=600';font-variant-ligatures:normal;font-variant-caps:normal;font-variant-numeric:normal;font-variant-east-asian:normal;font-variation-settings:'wght' 600;stroke-width:0.264583"
         x="99.561409"
         y="139.05225"
         id="tspan3" /></text>
    <path
       style="font-weight:800;font-size:3.175px;font-family:Montserrat;-inkscape-font-specification:'Montserrat Ultra-Bold';letter-spacing:-0.150813px;white-space:pre;inline-size:22.011;fill:url(#linearGradient6);stroke-width:0.264583"
       d="m 97.4798,134.39433 q -0.26353,0 -0.48895,-0.0825 -0.22225,-0.0857 -0.38735,-0.2413 -0.16193,-0.15557 -0.254,-0.36512 -0.0921,-0.21273 -0.0921,-0.46673 0,-0.254 0.0921,-0.46355 0.0921,-0.21272 0.254,-0.3683 0.1651,-0.15557 0.38735,-0.23812 0.22542,-0.0857 0.48895,-0.0857 0.30797,0 0.54927,0.10795 0.24448,0.10795 0.4064,0.31115 l -0.40005,0.36195 q -0.10795,-0.127 -0.23812,-0.19367 -0.127,-0.0667 -0.28575,-0.0667 -0.13653,0 -0.25083,0.0444 -0.1143,0.0445 -0.19685,0.13018 -0.0794,0.0825 -0.127,0.20002 -0.0444,0.11748 -0.0444,0.26035 0,0.14288 0.0444,0.26035 0.0476,0.11748 0.127,0.2032 0.0825,0.0825 0.19685,0.127 0.1143,0.0444 0.25083,0.0444 0.15875,0 0.28575,-0.0667 0.13017,-0.0667 0.23812,-0.19368 l 0.40005,0.36195 q -0.16192,0.20003 -0.4064,0.31115 -0.2413,0.10795 -0.54927,0.10795 z m 2.0753,-0.0444 v -0.32067 l -0.0413,-0.0794 v -0.59055 q 0,-0.14287 -0.0889,-0.21907 -0.0857,-0.0794 -0.27622,-0.0794 -0.12383,0 -0.25083,0.0413 -0.127,0.0381 -0.2159,0.10795 l -0.2032,-0.40958 q 0.14605,-0.0952 0.34925,-0.14605 0.20638,-0.054 0.40958,-0.054 0.4191,0 0.6477,0.19367 0.23177,0.1905 0.23177,0.60008 v 0.95567 z m -0.508,0.0286 q -0.20638,0 -0.34925,-0.0699 -0.14288,-0.0698 -0.21908,-0.1905 -0.073,-0.12065 -0.073,-0.26988 0,-0.15875 0.0794,-0.27305 0.0825,-0.11747 0.25083,-0.1778 0.16827,-0.0635 0.43497,-0.0635 h 0.4064 v 0.31433 h -0.32385 q -0.14605,0 -0.20637,0.0476 -0.0571,0.0476 -0.0571,0.127 0,0.0794 0.0603,0.127 0.0603,0.0476 0.1651,0.0476 0.0984,0 0.1778,-0.0476 0.0826,-0.0508 0.12065,-0.1524 l 0.0825,0.22225 q -0.0476,0.1778 -0.18732,0.26988 -0.13653,0.0889 -0.36195,0.0889 z m 1.30016,-0.0286 v -1.72085 h 0.57468 v 0.47943 l -0.1143,-0.13653 q 0.0952,-0.18415 0.26035,-0.27622 0.1651,-0.0952 0.3683,-0.0952 0.23177,0 0.4064,0.12065 0.1778,0.11747 0.23812,0.3683 l -0.19685,-0.0413 q 0.0921,-0.20955 0.27623,-0.32702 0.18732,-0.12065 0.42862,-0.12065 0.20003,0 0.3556,0.0825 0.15875,0.0794 0.24765,0.24765 0.0921,0.16827 0.0921,0.43497 v 0.98425 h -0.60325 v -0.88582 q 0,-0.18415 -0.0699,-0.2667 -0.0699,-0.0857 -0.1905,-0.0857 -0.0857,0 -0.15558,0.0413 -0.0699,0.0413 -0.10795,0.127 -0.0381,0.0825 -0.0381,0.2159 v 0.85407 h -0.60325 v -0.88582 q 0,-0.18415 -0.0698,-0.2667 -0.0667,-0.0857 -0.1905,-0.0857 -0.0889,0 -0.15875,0.0413 -0.0667,0.0413 -0.10795,0.127 -0.0381,0.0825 -0.0381,0.2159 v 0.85407 z m 4.30371,0.0444 q -0.26352,0 -0.48895,-0.0825 -0.22225,-0.0857 -0.38735,-0.2413 -0.16192,-0.15557 -0.254,-0.36512 -0.0921,-0.21273 -0.0921,-0.46673 0,-0.254 0.0921,-0.46355 0.0921,-0.21272 0.254,-0.3683 0.1651,-0.15557 0.38735,-0.23812 0.22543,-0.0857 0.48895,-0.0857 0.30798,0 0.54928,0.10795 0.24447,0.10795 0.4064,0.31115 l -0.40005,0.36195 q -0.10795,-0.127 -0.23813,-0.19367 -0.127,-0.0667 -0.28575,-0.0667 -0.13652,0 -0.25082,0.0444 -0.1143,0.0445 -0.19685,0.13018 -0.0794,0.0825 -0.127,0.20002 -0.0444,0.11748 -0.0444,0.26035 0,0.14288 0.0444,0.26035 0.0476,0.11748 0.127,0.2032 0.0825,0.0825 0.19685,0.127 0.1143,0.0444 0.25082,0.0444 0.15875,0 0.28575,-0.0667 0.13018,-0.0667 0.23813,-0.19368 l 0.40005,0.36195 q -0.16193,0.20003 -0.4064,0.31115 -0.2413,0.10795 -0.54928,0.10795 z m 1.03029,-0.0444 v -2.35585 h 0.60325 v 2.35585 z m 1.74466,0.0286 q -0.3048,0 -0.5334,-0.1143 -0.22542,-0.11748 -0.35242,-0.3175 -0.12383,-0.2032 -0.12383,-0.46038 0,-0.25717 0.12065,-0.4572 0.12383,-0.2032 0.33973,-0.31432 0.2159,-0.1143 0.48577,-0.1143 0.254,0 0.46355,0.10477 0.20955,0.1016 0.33338,0.30163 0.12382,0.20002 0.12382,0.48577 0,0.0318 -0.003,0.073 -0.003,0.0413 -0.006,0.0762 h -1.36208 v -0.3175 h 1.0414 l -0.2286,0.0889 q 0.003,-0.11748 -0.0444,-0.2032 -0.0445,-0.0857 -0.127,-0.13335 -0.0794,-0.0476 -0.18732,-0.0476 -0.10795,0 -0.1905,0.0476 -0.0794,0.0476 -0.12383,0.13652 -0.0444,0.0857 -0.0444,0.2032 v 0.0921 q 0,0.127 0.0508,0.21907 0.054,0.0921 0.1524,0.14288 0.0984,0.0476 0.23495,0.0476 0.127,0 0.2159,-0.0349 0.0921,-0.0381 0.18098,-0.1143 l 0.3175,0.3302 q -0.12383,0.13652 -0.3048,0.20955 -0.18098,0.0699 -0.42863,0.0699 z m 1.98914,-0.0286 v -0.32067 l -0.0413,-0.0794 v -0.59055 q 0,-0.14287 -0.0889,-0.21907 -0.0857,-0.0794 -0.27623,-0.0794 -0.12382,0 -0.25082,0.0413 -0.127,0.0381 -0.2159,0.10795 l -0.2032,-0.40958 q 0.14605,-0.0952 0.34925,-0.14605 0.20637,-0.054 0.40957,-0.054 0.4191,0 0.6477,0.19367 0.23178,0.1905 0.23178,0.60008 v 0.95567 z m -0.508,0.0286 q -0.20637,0 -0.34925,-0.0699 -0.14287,-0.0698 -0.21907,-0.1905 -0.073,-0.12065 -0.073,-0.26988 0,-0.15875 0.0794,-0.27305 0.0825,-0.11747 0.25082,-0.1778 0.16828,-0.0635 0.43498,-0.0635 h 0.4064 v 0.31433 h -0.32385 q -0.14605,0 -0.20638,0.0476 -0.0571,0.0476 -0.0571,0.127 0,0.0794 0.0603,0.127 0.0603,0.0476 0.1651,0.0476 0.0984,0 0.1778,-0.0476 0.0825,-0.0508 0.12065,-0.1524 l 0.0825,0.22225 q -0.0476,0.1778 -0.18733,0.26988 -0.13652,0.0889 -0.36195,0.0889 z m 1.30016,-0.0286 v -1.72085 h 0.57468 v 0.48895 l -0.11113,-0.14287 q 0.0984,-0.18733 0.26988,-0.2794 0.17145,-0.0952 0.38735,-0.0952 0.20002,0 0.36195,0.0825 0.16192,0.0794 0.254,0.24765 0.0953,0.16827 0.0953,0.43497 v 0.98425 H 111.436 v -0.88582 q 0,-0.18415 -0.0762,-0.2667 -0.073,-0.0857 -0.20638,-0.0857 -0.0953,0 -0.17462,0.0445 -0.0794,0.0413 -0.12383,0.13018 -0.0444,0.0889 -0.0444,0.23177 v 0.83185 z m 2.68446,0.0286 q -0.21907,0 -0.42862,-0.0508 -0.20638,-0.0508 -0.33338,-0.127 l 0.18098,-0.41275 q 0.12065,0.073 0.28257,0.11747 0.16193,0.0413 0.3175,0.0413 0.1524,0 0.20955,-0.0318 0.0603,-0.0317 0.0603,-0.0857 0,-0.0508 -0.0572,-0.073 -0.054,-0.0254 -0.14605,-0.0381 -0.0889,-0.0127 -0.19685,-0.0286 -0.10795,-0.0159 -0.21908,-0.0413 -0.10795,-0.0286 -0.20002,-0.0825 -0.0889,-0.0572 -0.14288,-0.1524 -0.054,-0.0953 -0.054,-0.2413 0,-0.1651 0.0953,-0.2921 0.0984,-0.13018 0.28575,-0.2032 0.18732,-0.0762 0.4572,-0.0762 0.18097,0 0.36512,0.0381 0.18733,0.0349 0.31433,0.10795 l -0.18098,0.40957 q -0.127,-0.073 -0.254,-0.0984 -0.127,-0.0286 -0.2413,-0.0286 -0.1524,0 -0.2159,0.0349 -0.0603,0.0349 -0.0603,0.0857 0,0.0508 0.054,0.0794 0.054,0.0254 0.14288,0.0413 0.0921,0.0127 0.20002,0.0286 0.10795,0.0127 0.2159,0.0413 0.11113,0.0286 0.20003,0.0857 0.0921,0.054 0.14605,0.14922 0.054,0.0921 0.054,0.23813 0,0.15875 -0.0984,0.28575 -0.0953,0.127 -0.28575,0.2032 -0.18733,0.0762 -0.46673,0.0762 z"
       id="text4"
       aria-label="CamCleans" />
    <text
       xml:space="preserve"
       style="font-style:normal;font-variant:normal;font-weight:800;font-stretch:normal;font-size:3.175px;font-family:Montserrat;-inkscape-font-specification:'Montserrat Ultra-Bold';font-variant-ligatures:normal;font-variant-caps:normal;font-variant-numeric:normal;font-variant-east-asian:normal;writing-mode:lr-tb;direction:ltr;fill:#57bdf8;fill-opacity:1;stroke-width:0.264583"
       x="123.93575"
       y="138.91426"
       id="text6"><tspan
         sodipodi:role="line"
         id="tspan6"
         style="stroke-width:0.264583"
         x="123.93575"
         y="138.91426" /></text>
  </g>
</svg>
